<?xml version="1.0" standalone="no"?>
<!DOCTYPE svg PUBLIC "-//W3C//DTD SVG 20010904//EN"
 "http://www.w3.org/TR/2001/REC-SVG-20010904/DTD/svg10.dtd">
<svg version="1.0" xmlns="http://www.w3.org/2000/svg"
 width="260.000000pt" height="260.000000pt" viewBox="0 0 260.000000 260.000000"
 preserveAspectRatio="xMidYMid meet">
<metadata>
Created by potrace 1.11, written by Peter Selinger 2001-2013
</metadata>
<g transform="translate(0.000000,260.000000) scale(0.100000,-0.100000)"
fill="#000000" stroke="none">
<path d="M2457 2584 c-1 -1 -49 -4 -107 -8 -120 -7 -186 -16 -298 -40 -75 -16
-209 -65 -282 -103 -238 -125 -398 -265 -722 -630 l-37 -42 -93 -6 c-51 -3
-133 -7 -183 -10 -95 -5 -105 -6 -172 -24 -120 -32 -236 -119 -310 -231 -76
-116 -233 -399 -233 -421 0 -16 20 -44 65 -87 69 -67 71 -68 155 -41 19 6 49
14 65 19 17 4 82 24 145 45 63 20 123 38 133 40 9 2 21 6 26 9 4 3 20 -8 36
-24 21 -22 25 -31 16 -42 -24 -27 -213 -294 -227 -321 l-15 -28 110 -109 c60
-61 116 -110 125 -110 9 0 55 28 103 63 48 34 97 69 109 77 12 8 50 35 84 58
l62 44 23 -22 c21 -20 22 -24 10 -63 -68 -219 -125 -409 -125 -416 0 -5 29
-40 64 -77 55 -58 67 -66 93 -62 40 6 384 207 463 271 128 104 188 234 205
442 2 33 7 109 10 169 5 97 8 111 28 126 54 43 204 180 281 256 116 115 316
370 316 403 0 5 3 11 8 13 19 8 123 258 138 333 1 6 6 28 12 50 6 22 13 58 17
80 3 23 7 52 10 65 7 33 18 191 19 262 1 72 -14 88 -78 91 -26 1 -48 1 -49 1z
m-365 -364 c48 -14 94 -53 117 -99 56 -116 -22 -257 -149 -269 -63 -6 -107 10
-153 54 -93 91 -67 240 53 302 49 24 77 27 132 12z"/>
</g>
</svg>
