<?xml version="1.0" encoding="utf-8"?>
<!-- Generator: Adobe Illustrator 16.0.0, SVG Export Plug-In . SVG Version: 6.00 Build 0)  -->
<!DOCTYPE svg PUBLIC "-//W3C//DTD SVG 1.1//EN" "http://www.w3.org/Graphics/SVG/1.1/DTD/svg11.dtd">
<svg version="1.1" id="Layer_1" xmlns="http://www.w3.org/2000/svg" xmlns:xlink="http://www.w3.org/1999/xlink" x="0px" y="0px"
	 width="144px" height="144px" viewBox="0 0 144 144" enable-background="new 0 0 144 144" xml:space="preserve">
<path display="none" fill="#DEDDE1" d="M144,112c0,17.673-14.327,32-32,32H32c-17.673,0-32-14.327-32-32V32C0,14.327,14.327,0,32,0
	h80c17.673,0,32,14.327,32,32V112z"/>
<g>
	<path fill="#FFFFFF" d="M128.074,15.923c-0.465-0.44-1.02-0.661-1.67-0.661c-12.098,0-22.088,1.645-29.969,4.937
		c-7.877,3.292-16.176,9.272-24.89,17.939c-3.709,3.755-7.789,8.275-12.237,13.559l-15.659,0.826
		c-0.355,0.045-6.529,0.873-10.909,3.805c-4.762,3.188-7.754,8.512-7.995,8.849l-9.172,15.724c-0.556,0.928-0.44,1.832,0.348,2.713
		l4.449,4.449c0.417,0.418,0.951,0.625,1.599,0.625c0.279,0.002,0.486-0.021,0.627-0.068l19.191-5.912l3.525,3.525l-10.391,14.609
		l8.545,8.547l14.609-10.391l3.249,3.25l-5.911,19.189c-0.23,0.834-0.045,1.576,0.557,2.225l4.45,4.451
		c0.511,0.414,1.043,0.625,1.6,0.623c0.417,0,0.788-0.094,1.112-0.279l14.696-8.572c0.341-0.242,6.46-3.553,9.944-9.021
		c3.162-4.961,3.736-12.123,3.779-12.475l0.783-13.666c5.285-4.449,9.807-8.527,13.561-12.238
		c8.252-8.297,14.127-16.652,17.627-25.063c3.5-8.414,5.248-18.392,5.248-29.935C128.771,16.885,128.539,16.365,128.074,15.923z
		 M110.73,45.285c-1.643,1.643-3.641,2.466-5.99,2.467c-2.348-0.001-4.344-0.823-5.988-2.467s-2.467-3.642-2.467-5.99
		s0.822-4.346,2.467-5.99c1.643-1.643,3.641-2.465,5.988-2.465c2.35,0,4.346,0.821,5.99,2.466c1.643,1.644,2.465,3.641,2.465,5.988
		C113.195,41.644,112.377,43.638,110.73,45.285z"/>
	<path d="M62.013,131.737c-1.234,0-2.438-0.447-3.481-1.293l-0.232-0.209l-4.528-4.532c-1.315-1.417-1.759-3.215-1.25-5.063
		l5.404-17.548l-0.178-0.179l-14.609,10.391l-12.131-12.134l10.391-14.609l-0.454-0.454l-17.464,5.38
		c-0.384,0.129-0.889,0.201-1.479,0.201c-1.484,0-2.771-0.521-3.754-1.506l-4.562-4.568c-1.663-1.858-1.919-4.197-0.685-6.256
		l9.34-15.99c3.215-5.2,6.523-8.054,8.731-9.533c4.915-3.291,11.47-4.196,12.202-4.289l0.218-0.019l14.364-0.758
		c4.163-4.905,8.047-9.187,11.557-12.74c8.968-8.919,17.665-15.171,25.867-18.599c8.212-3.43,18.683-5.168,31.12-5.168
		c1.424,0,2.714,0.512,3.738,1.482c1.07,1.017,1.635,2.31,1.635,3.743c0,11.889-1.843,22.348-5.479,31.087
		c-3.635,8.736-9.781,17.493-18.27,26.026c-3.558,3.518-7.844,7.405-12.767,11.582L94.53,98.754
		c-0.256,2.559-1.172,8.931-4.227,13.723c-1.611,2.528-4.772,6.286-10.683,9.829l-0.28,0.172l-14.696,8.572
		c-0.805,0.46-1.681,0.688-2.624,0.688H62.013z M58.42,121.87l3.703,3.704l14.163-8.262c0.068-0.043,0.151-0.094,0.25-0.153
		c4.907-2.941,7.443-5.923,8.707-7.907c2.429-3.81,3.15-9.425,3.313-11.056l0.005-0.045l0.854-14.891l0.989-0.832
		c5.217-4.393,9.72-8.455,13.383-12.077c7.918-7.961,13.633-16.07,16.967-24.083c3.251-7.817,4.938-17.236,5.015-28.005
		c-11.364,0.057-20.839,1.639-28.177,4.703c-7.482,3.127-15.534,8.947-23.931,17.298c-3.615,3.66-7.678,8.163-12.058,13.364
		l-0.838,0.995l-16.834,0.888c-0.762,0.109-5.958,0.923-9.522,3.309c-1.715,1.148-4.316,3.417-6.966,7.702
		c-0.053,0.086-0.099,0.159-0.138,0.219l-8.847,15.167l3.706,3.706l20.467-6.307l6.596,6.597l-10.391,14.609l4.958,4.96
		l14.609-10.391l6.32,6.321L58.42,121.87z M104.741,50.751c-3.163-0.001-5.892-1.127-8.11-3.345
		c-2.22-2.219-3.346-4.949-3.346-8.112c0-3.163,1.126-5.892,3.346-8.111c2.218-2.219,4.946-3.344,8.109-3.344
		s5.893,1.125,8.111,3.345c2.219,2.221,3.344,4.949,3.344,8.109c0,3.165-1.125,5.895-3.344,8.113
		C110.634,49.625,107.905,50.75,104.741,50.751z M104.74,33.839c-1.556,0-2.785,0.504-3.866,1.586
		c-1.084,1.083-1.589,2.313-1.589,3.869s0.505,2.786,1.588,3.869s2.313,1.588,3.868,1.588c1.556,0,2.785-0.505,3.867-1.588
		c1.083-1.083,1.587-2.312,1.587-3.871c0-1.555-0.504-2.784-1.587-3.868C107.526,34.343,106.297,33.839,104.74,33.839z"/>
</g>
</svg>
