<?xml version="1.0" encoding="utf-8"?>
<!-- Generator: Adobe Illustrator 16.0.0, SVG Export Plug-In . SVG Version: 6.00 Build 0)  -->
<!DOCTYPE svg PUBLIC "-//W3C//DTD SVG 1.1//EN" "http://www.w3.org/Graphics/SVG/1.1/DTD/svg11.dtd">
<svg version="1.1" id="Layer_1" xmlns="http://www.w3.org/2000/svg" xmlns:xlink="http://www.w3.org/1999/xlink" x="0px" y="0px"
	 width="660px" height="180px" viewBox="0 0 660 180" enable-background="new 0 0 660 180" xml:space="preserve">
<g>
	<g>
		
			<text transform="matrix(0.9511 0 -0.309 0.9511 183.3442 105.3135)" fill="#428BCA" font-family="'Prototype'" font-size="126.6762">LIFTOFF</text>
		<g>
			<polygon fill="#428BCA" points="616.541,126.24 179.498,126.24 183.246,114.706 620.289,114.706 			"/>
			<path fill="#428BCA" d="M616.541,128.224H179.498c-0.635,0-1.232-0.304-1.605-0.817c-0.373-0.515-0.478-1.175-0.282-1.779
				l3.748-11.534c0.266-0.817,1.028-1.37,1.888-1.37h437.043c0.636,0,1.231,0.303,1.605,0.816c0.373,0.515,0.478,1.176,0.281,1.78
				l-3.748,11.533C618.163,127.671,617.401,128.224,616.541,128.224z M182.229,124.256H615.1l2.458-7.565h-432.87L182.229,124.256z"
				/>
		</g>
		<g>
			
				<text transform="matrix(0.9511 0 -0.309 0.9511 212.7939 163.9404)" fill="#428BCA" font-family="'Prototype'" font-size="40.6853">T-5 TO THE FUTURE</text>
		</g>
		<g>
			<polygon fill="#428BCA" points="175.651,138.084 217.321,138.084 211.84,154.95 172.91,146.517 			"/>
			<path fill="#428BCA" d="M211.842,156.935c-0.14,0-0.281-0.015-0.422-0.044l-38.93-8.435c-0.549-0.118-1.021-0.463-1.3-0.95
				c-0.28-0.487-0.34-1.068-0.167-1.603l2.741-8.434c0.266-0.817,1.028-1.37,1.887-1.37h41.67c0.635,0,1.231,0.304,1.605,0.817
				c0.373,0.515,0.478,1.176,0.281,1.779l-5.481,16.867C213.457,156.396,212.685,156.935,211.842,156.935z M175.476,145.042
				l35.032,7.589l4.083-12.563h-37.497L175.476,145.042z"/>
		</g>
		<g>
			<polygon fill="#428BCA" points="612.692,138.084 571.022,138.084 565.543,154.95 609.953,146.517 			"/>
			<path fill="#428BCA" d="M565.543,156.935c-0.564,0-1.109-0.24-1.489-0.673c-0.464-0.525-0.615-1.258-0.399-1.925l5.48-16.867
				c0.266-0.817,1.028-1.37,1.888-1.37h41.67c0.637,0,1.232,0.304,1.605,0.817c0.374,0.515,0.478,1.176,0.282,1.779l-2.74,8.435
				c-0.224,0.688-0.805,1.201-1.518,1.335l-44.409,8.435C565.789,156.923,565.665,156.935,565.543,156.935z M572.464,140.067
				l-3.998,12.309l39.963-7.59l1.532-4.719H572.464z"/>
		</g>
	</g>
	<g>
		<path fill="#418AC9" d="M171.889,11.888c-0.677-0.643-1.49-0.966-2.439-0.965c-17.677-0.001-32.274,2.404-43.789,7.213
			c-11.512,4.811-23.637,13.549-36.371,26.213c-5.42,5.487-11.38,12.091-17.881,19.811l-22.882,1.208
			c-0.519,0.065-9.54,1.276-15.938,5.56c-6.958,4.658-11.331,12.438-11.683,12.931L7.505,106.835
			c-0.813,1.353-0.644,2.674,0.508,3.962l6.502,6.502c0.608,0.61,1.389,0.913,2.336,0.913c0.407,0.002,0.71-0.032,0.916-0.102
			l28.042-8.638l28.548,28.553l-8.637,28.04c-0.336,1.219-0.066,2.303,0.814,3.251l6.502,6.504c0.746,0.606,1.524,0.913,2.337,0.911
			c0.61,0,1.152-0.136,1.626-0.407l21.475-12.526c0.498-0.354,9.438-5.19,14.532-13.183c4.62-7.249,5.457-17.713,5.521-18.227
			l1.145-19.969c7.722-6.504,14.328-12.462,19.813-17.884c12.06-12.124,20.643-24.332,25.756-36.623
			c5.114-12.295,7.67-26.875,7.67-43.74C172.908,13.293,172.57,12.533,171.889,11.888z M146.547,54.791
			c-2.4,2.401-5.319,3.603-8.752,3.604c-3.433-0.001-6.348-1.202-8.752-3.604c-2.4-2.403-3.604-5.321-3.604-8.753
			c0.001-3.432,1.203-6.35,3.604-8.753c2.402-2.401,5.321-3.603,8.751-3.603c3.434,0,6.351,1.201,8.753,3.604
			c2.401,2.402,3.603,5.32,3.603,8.75C150.15,49.471,148.952,52.385,146.547,54.791z"/>
		<g>
			<polygon fill="#428BCA" points="35.775,135.973 48.261,148.46 73.1,130.794 53.441,111.135 			"/>
			<path fill="#428BCA" d="M48.262,150.445c-0.511,0-1.02-0.197-1.403-0.581l-12.486-12.487c-0.685-0.686-0.776-1.765-0.214-2.554
				l17.666-24.838c0.339-0.477,0.87-0.779,1.451-0.828c0.584-0.049,1.156,0.162,1.569,0.574l19.659,19.659
				c0.413,0.412,0.623,0.986,0.574,1.568c-0.049,0.583-0.352,1.114-0.827,1.452l-24.839,17.667
				C49.065,150.323,48.663,150.445,48.262,150.445z M38.365,135.756l10.114,10.115l21.559-15.334l-16.339-16.34L38.365,135.756z"/>
		</g>
	</g>
</g>
</svg>
