<?xml version="1.0" encoding="utf-8"?>
<!-- Generator: Adobe Illustrator 16.0.0, SVG Export Plug-In . SVG Version: 6.00 Build 0)  -->
<!DOCTYPE svg PUBLIC "-//W3C//DTD SVG 1.1//EN" "http://www.w3.org/Graphics/SVG/1.1/DTD/svg11.dtd">
<svg version="1.1" id="Layer_1" xmlns="http://www.w3.org/2000/svg" xmlns:xlink="http://www.w3.org/1999/xlink" x="0px" y="0px"
	 width="660px" height="180px" viewBox="0 0 660 180" enable-background="new 0 0 660 180" xml:space="preserve">
<g>
	<g>
		<g enable-background="new    ">
			<path fill="#428BCA" d="M248.886,90.855l-4.306,13.254c-0.261,0.804-0.795,1.205-1.597,1.205h-33.133c-0.644,0-1.246,0-1.807,0
				c-0.563,0-1.031-0.04-1.407-0.121c-6.485-0.561-10.591-2.51-12.318-5.843c-1.729-3.333-1.496-8.374,0.696-15.121l20.824-64.097
				c0.26-0.801,0.792-1.205,1.596-1.205h15.06c0.803,0,1.074,0.403,0.814,1.205l-21.294,65.542
				c-0.861,2.651,0.274,3.976,3.407,3.976h32.65C248.874,89.651,249.146,90.054,248.886,90.855z"/>
			<path fill="#428BCA" d="M279.24,18.929h15.061c0.802,0,1.073,0.403,0.813,1.205l-27.283,83.976
				c-0.261,0.804-0.794,1.205-1.596,1.205h-15.061c-0.804,0-1.074-0.401-0.813-1.205l27.283-83.976
				C277.904,19.332,278.437,18.929,279.24,18.929z"/>
			<path fill="#428BCA" d="M300.259,35.074c0.887-2.729,2.098-5.1,3.635-7.109c1.535-2.007,3.303-3.674,5.3-5
				c1.996-1.325,4.17-2.33,6.521-3.012c2.349-0.682,4.771-1.024,7.261-1.024h42.168c0.803,0,1.073,0.403,0.813,1.205l-4.306,13.253
				c-0.262,0.804-0.794,1.206-1.596,1.206h-36.386c-2.169,0-3.864,0.583-5.087,1.747c-1.221,1.165-2.184,2.831-2.889,5
				l-3.719,11.446c-0.287,0.884-0.029,1.325,0.774,1.325h36.987c0.803,0,1.074,0.402,0.814,1.205l-4.307,13.253
				c-0.261,0.804-0.793,1.205-1.596,1.205h-36.987c-0.804,0-1.349,0.443-1.636,1.325L295.3,104.109
				c-0.261,0.804-0.794,1.205-1.597,1.205h-15.06c-0.804,0-1.074-0.401-0.813-1.205L300.259,35.074z"/>
			<path fill="#428BCA" d="M381.563,104.109c-0.261,0.804-0.794,1.205-1.597,1.205h-15.061c-0.803,0-1.074-0.401-0.813-1.205
				l22.194-68.313c0.261-0.803-0.011-1.205-0.813-1.205h-19.639c-0.804,0-1.075-0.401-0.813-1.206l4.306-13.253
				c0.26-0.801,0.793-1.205,1.596-1.205h59.156c0.803,0,1.074,0.403,0.814,1.205l-4.306,13.253
				c-0.262,0.804-0.795,1.206-1.597,1.206h-19.639c-0.804,0-1.335,0.402-1.596,1.205L381.563,104.109z"/>
			<path fill="#428BCA" d="M423.898,62.061c1.539-4.738,2.91-8.834,4.113-12.289c1.201-3.453,2.356-6.266,3.463-8.434
				c1.66-3.133,3.256-5.943,4.788-8.434c1.532-2.489,3.161-4.537,4.888-6.145c2.285-2.088,4.888-3.916,7.806-5.481
				c2.918-1.567,5.847-2.67,8.787-3.314c2.059-0.401,4.667-0.642,7.825-0.723c3.158-0.079,6.907-0.121,11.244-0.121
				c4.338,0,8.059,0.042,11.166,0.121c3.106,0.081,5.558,0.321,7.354,0.723c2.521,0.644,4.734,1.747,6.635,3.314
				c1.901,1.566,3.314,3.394,4.243,5.481c0.683,1.608,0.981,3.656,0.896,6.145c-0.087,2.49-0.317,5.301-0.692,8.434
				c-0.303,2.168-0.976,4.981-2.018,8.434c-1.043,3.454-2.332,7.55-3.871,12.289l-0.234,0.723c-1.541,4.741-2.914,8.837-4.114,12.29
				c-1.202,3.454-2.356,6.265-3.462,8.433c-1.662,3.133-3.257,5.945-4.789,8.435c-1.531,2.49-3.16,4.538-4.888,6.145
				c-2.286,2.09-4.886,3.916-7.805,5.481c-2.918,1.565-5.849,2.669-8.788,3.313c-2.058,0.401-4.665,0.644-7.824,0.724
				c-3.158,0.079-6.906,0.12-11.244,0.12c-4.337,0-8.059-0.041-11.166-0.12c-3.105-0.08-5.558-0.322-7.355-0.724
				c-2.521-0.644-4.733-1.747-6.634-3.313c-1.901-1.565-3.316-3.392-4.244-5.481c-0.683-1.606-0.98-3.654-0.896-6.145
				c0.087-2.49,0.316-5.302,0.693-8.435c0.302-2.168,0.974-4.979,2.017-8.433c1.04-3.452,2.331-7.549,3.872-12.29L423.898,62.061z
				 M464.243,33.929c-2.288,0.121-4.301,0.382-6.037,0.783c-3.127,0.724-5.638,2.15-7.534,4.278
				c-1.896,2.129-3.536,5.322-4.919,9.578l-9.003,27.711c-1.383,4.258-1.819,7.452-1.305,9.579c0.514,2.128,2.098,3.554,4.755,4.277
				c1.476,0.404,3.318,0.664,5.528,0.783c2.209,0.121,4.56,0.182,7.05,0.182c2.489,0,4.879-0.061,7.167-0.182
				c2.287-0.119,4.3-0.379,6.038-0.783c3.126-0.723,5.638-2.148,7.534-4.277c1.896-2.127,3.536-5.32,4.919-9.579l9.003-27.711
				c1.383-4.255,1.818-7.449,1.305-9.578c-0.514-2.127-2.099-3.554-4.755-4.278c-1.478-0.4-3.32-0.662-5.529-0.783
				c-2.21-0.12-4.561-0.18-7.05-0.18C468.92,33.749,466.53,33.809,464.243,33.929z"/>
			<path fill="#428BCA" d="M518.448,35.074c0.888-2.729,2.098-5.1,3.635-7.109c1.535-2.007,3.303-3.674,5.3-5
				c1.996-1.325,4.17-2.33,6.521-3.012c2.349-0.682,4.771-1.024,7.261-1.024h42.168c0.803,0,1.073,0.403,0.813,1.205l-4.306,13.253
				c-0.262,0.804-0.794,1.206-1.596,1.206h-36.386c-2.169,0-3.864,0.583-5.087,1.747c-1.221,1.165-2.184,2.831-2.889,5
				l-3.719,11.446c-0.287,0.884-0.029,1.325,0.774,1.325h36.987c0.803,0,1.074,0.402,0.814,1.205l-4.307,13.253
				c-0.261,0.804-0.793,1.205-1.596,1.205h-36.987c-0.804,0-1.349,0.443-1.636,1.325l-10.726,33.012
				c-0.261,0.804-0.794,1.205-1.597,1.205h-15.059c-0.805,0-1.075-0.401-0.814-1.205L518.448,35.074z"/>
			<path fill="#428BCA" d="M585.193,35.074c0.887-2.729,2.098-5.1,3.635-7.109c1.535-2.007,3.303-3.674,5.299-5
				c1.998-1.325,4.17-2.33,6.521-3.012c2.348-0.682,4.77-1.024,7.26-1.024h42.17c0.801,0,1.072,0.403,0.813,1.205l-4.306,13.253
				c-0.262,0.804-0.794,1.206-1.596,1.206h-36.386c-2.169,0-3.864,0.583-5.086,1.747c-1.222,1.165-2.185,2.831-2.89,5l-3.719,11.446
				c-0.287,0.884-0.029,1.325,0.774,1.325h36.987c0.803,0,1.075,0.402,0.813,1.205l-4.305,13.253
				c-0.262,0.804-0.794,1.205-1.597,1.205h-36.987c-0.804,0-1.35,0.443-1.636,1.325l-10.726,33.012
				c-0.261,0.804-0.793,1.205-1.596,1.205h-15.061c-0.803,0-1.074-0.401-0.813-1.205L585.193,35.074z"/>
		</g>
		<g>
			<polygon fill="#428BCA" points="616.541,126.24 179.498,126.24 183.246,114.706 620.289,114.706 			"/>
			<path fill="#428BCA" d="M616.541,128.225H179.498c-0.635,0-1.232-0.305-1.605-0.817c-0.373-0.515-0.478-1.175-0.282-1.779
				l3.748-11.534c0.266-0.816,1.028-1.369,1.888-1.369H620.29c0.636,0,1.231,0.303,1.604,0.815c0.373,0.515,0.479,1.176,0.281,1.78
				l-3.748,11.533C618.163,127.671,617.401,128.225,616.541,128.225z M182.229,124.256H615.1l2.458-7.564h-432.87L182.229,124.256z"
				/>
		</g>
		<g>
			<g enable-background="new    ">
				<path fill="#428BCA" d="M226.348,163.554c-0.084,0.259-0.256,0.388-0.514,0.388h-4.837c-0.258,0-0.345-0.129-0.261-0.388
					l7.128-21.94c0.084-0.257-0.003-0.387-0.261-0.387h-6.308c-0.258,0-0.345-0.129-0.261-0.387l1.383-4.256
					c0.083-0.258,0.255-0.389,0.513-0.389h19c0.257,0,0.344,0.131,0.261,0.389l-1.383,4.256c-0.084,0.258-0.256,0.387-0.513,0.387
					h-6.308c-0.258,0-0.429,0.13-0.513,0.387L226.348,163.554z"/>
				<path fill="#428BCA" d="M237.673,149.778c0.075-0.231,0.241-0.349,0.5-0.349h9.519c0.258,0,0.346,0.131,0.262,0.388l-1.357,4.18
					c-0.084,0.258-0.256,0.386-0.514,0.386h-9.519c-0.259,0-0.345-0.128-0.261-0.386L237.673,149.778z"/>
				<path fill="#428BCA" d="M246.963,163.941c-0.259,0-0.345-0.129-0.261-0.388l1.32-4.062c0.084-0.259,0.253-0.389,0.512-0.389
					h11.841c0.852,0,1.718-0.322,2.598-0.967s1.53-1.611,1.949-2.902c0.26-0.799,0.374-1.432,0.346-1.896
					c-0.03-0.464-0.162-0.813-0.396-1.045c-0.233-0.231-0.541-0.379-0.92-0.444c-0.379-0.063-0.775-0.097-1.188-0.097h-11.841
					c-0.259,0-0.345-0.129-0.261-0.387l4.803-14.781c0.083-0.258,0.254-0.389,0.513-0.389h19.193c0.257,0,0.344,0.131,0.261,0.389
					l-1.32,4.063c-0.084,0.258-0.256,0.387-0.513,0.387H260.21c-0.259,0-0.43,0.13-0.513,0.387l-1.597,4.914
					c-0.084,0.259,0.003,0.388,0.262,0.388h6.539c1.986,0,3.475,0.265,4.463,0.794c0.989,0.529,1.641,1.205,1.952,2.031
					s0.383,1.74,0.21,2.746c-0.172,1.008-0.413,1.988-0.723,2.941c-0.395,1.213-0.918,2.349-1.571,3.405
					c-0.653,1.058-1.449,1.98-2.389,2.767c-0.939,0.788-2.03,1.406-3.273,1.857s-2.664,0.678-4.264,0.678H246.963z"/>
				<path fill="#428BCA" d="M293.717,163.554c-0.084,0.259-0.256,0.388-0.514,0.388h-4.837c-0.258,0-0.345-0.129-0.261-0.388
					l7.128-21.94c0.084-0.257-0.003-0.387-0.261-0.387h-6.308c-0.258,0-0.345-0.129-0.261-0.387l1.383-4.256
					c0.083-0.258,0.255-0.389,0.513-0.389h18.999c0.258,0,0.345,0.131,0.262,0.389l-1.383,4.256
					c-0.084,0.258-0.256,0.387-0.513,0.387h-6.308c-0.258,0-0.429,0.13-0.513,0.387L293.717,163.554z"/>
				<path fill="#428BCA" d="M307.313,150.05c0.494-1.522,0.935-2.838,1.321-3.948c0.386-1.108,0.756-2.012,1.112-2.707
					c0.532-1.006,1.046-1.909,1.537-2.71c0.492-0.799,1.016-1.456,1.569-1.973c0.734-0.671,1.57-1.257,2.508-1.761
					s1.877-0.857,2.822-1.064c0.662-0.129,1.499-0.206,2.514-0.232c1.014-0.025,2.218-0.038,3.61-0.038
					c1.394,0,2.589,0.013,3.587,0.038c0.997,0.026,1.785,0.104,2.361,0.232c0.811,0.207,1.521,0.561,2.131,1.064
					c0.611,0.504,1.064,1.09,1.363,1.761c0.22,0.517,0.315,1.174,0.288,1.973c-0.028,0.801-0.103,1.704-0.223,2.71
					c-0.098,0.695-0.313,1.599-0.647,2.707c-0.335,1.11-0.749,2.426-1.243,3.948l-0.075,0.231c-0.495,1.523-0.937,2.839-1.322,3.947
					c-0.387,1.109-0.757,2.012-1.112,2.709c-0.532,1.006-1.046,1.909-1.537,2.708c-0.492,0.801-1.016,1.458-1.569,1.974
					c-0.735,0.672-1.57,1.258-2.508,1.762c-0.938,0.503-1.879,0.856-2.822,1.064c-0.661,0.127-1.499,0.205-2.514,0.231
					c-1.014,0.025-2.217,0.038-3.61,0.038c-1.393,0-2.589-0.013-3.587-0.038c-0.997-0.026-1.784-0.104-2.361-0.231
					c-0.811-0.208-1.521-0.562-2.131-1.064c-0.611-0.504-1.065-1.09-1.363-1.762c-0.22-0.516-0.315-1.173-0.288-1.974
					c0.028-0.799,0.103-1.702,0.223-2.708c0.097-0.697,0.313-1.6,0.647-2.709c0.334-1.108,0.749-2.424,1.244-3.947L307.313,150.05z
					 M320.271,141.015c-0.735,0.038-1.382,0.122-1.939,0.251c-1.004,0.232-1.811,0.69-2.42,1.373
					c-0.609,0.685-1.136,1.71-1.58,3.077l-2.891,8.899c-0.445,1.368-0.584,2.394-0.42,3.076c0.166,0.685,0.674,1.142,1.527,1.373
					c0.474,0.131,1.065,0.215,1.775,0.252c0.709,0.039,1.465,0.059,2.265,0.059s1.567-0.02,2.302-0.059
					c0.734-0.037,1.381-0.121,1.939-0.252c1.004-0.231,1.811-0.688,2.42-1.373c0.609-0.683,1.135-1.708,1.58-3.076l2.891-8.899
					c0.444-1.367,0.584-2.393,0.42-3.077c-0.166-0.683-0.674-1.141-1.527-1.373c-0.475-0.129-1.066-0.213-1.775-0.251
					c-0.711-0.039-1.465-0.059-2.265-0.059S321.006,140.976,320.271,141.015z"/>
				<path fill="#428BCA" d="M353.27,163.554c-0.084,0.259-0.256,0.388-0.514,0.388h-4.837c-0.258,0-0.345-0.129-0.261-0.388
					l7.128-21.94c0.084-0.257-0.003-0.387-0.261-0.387h-6.308c-0.258,0-0.345-0.129-0.261-0.387l1.383-4.256
					c0.083-0.258,0.254-0.389,0.512-0.389h19c0.258,0,0.345,0.131,0.262,0.389l-1.383,4.256c-0.084,0.258-0.256,0.387-0.513,0.387
					h-6.308c-0.258,0-0.429,0.13-0.513,0.387L353.27,163.554z"/>
				<path fill="#428BCA" d="M371.435,136.584c0.083-0.258,0.253-0.389,0.513-0.389h4.836c0.258,0,0.345,0.131,0.262,0.389
					l-3.42,10.523c-0.084,0.259,0.004,0.389,0.262,0.389h9.17c0.258,0,0.43-0.13,0.514-0.389l3.42-10.523
					c0.083-0.258,0.254-0.389,0.512-0.389h4.838c0.258,0,0.344,0.131,0.261,0.389l-8.763,26.97
					c-0.084,0.259-0.255,0.388-0.513,0.388h-4.837c-0.258,0-0.345-0.129-0.261-0.388l3.457-10.641
					c0.084-0.257-0.004-0.388-0.262-0.388h-9.171c-0.258,0-0.429,0.131-0.513,0.388l-3.457,10.641
					c-0.084,0.259-0.255,0.388-0.513,0.388h-4.837c-0.259,0-0.345-0.129-0.261-0.388L371.435,136.584z"/>
				<path fill="#428BCA" d="M393.976,142.117c0.569-1.755,1.509-3.18,2.82-4.276c1.311-1.097,2.87-1.646,4.675-1.646h13.119
					c0.334,0,0.46,0.131,0.377,0.389l-1.383,4.256c-0.084,0.258-0.256,0.387-0.514,0.387h-12.808c-0.259,0-0.433,0.143-0.525,0.426
					l-1.71,5.263c-0.084,0.259,0.003,0.388,0.262,0.388h11.879c0.258,0,0.346,0.129,0.262,0.386l-1.445,4.45
					c-0.084,0.259-0.256,0.387-0.514,0.387h-11.879c-0.259,0-0.429,0.131-0.513,0.388l-1.823,5.61
					c-0.084,0.258,0.002,0.388,0.262,0.388h12.807c0.258,0,0.347,0.129,0.263,0.386l-1.383,4.257
					c-0.084,0.259-0.256,0.388-0.514,0.388h-14.975c-0.465,0-0.89-0.121-1.274-0.368c-0.384-0.244-0.694-0.561-0.93-0.948
					c-0.236-0.387-0.386-0.818-0.449-1.295c-0.064-0.479-0.017-0.962,0.143-1.452L393.976,142.117z"/>
				<path fill="#428BCA" d="M427.453,141.381c0.285-0.877,0.674-1.637,1.168-2.283c0.492-0.645,1.061-1.18,1.701-1.605
					c0.643-0.425,1.34-0.748,2.095-0.967s1.532-0.33,2.333-0.33h13.543c0.258,0,0.344,0.131,0.261,0.389l-1.384,4.256
					c-0.083,0.258-0.254,0.387-0.512,0.387h-11.686c-0.697,0-1.241,0.188-1.634,0.562c-0.394,0.374-0.702,0.909-0.928,1.606
					l-1.194,3.676c-0.093,0.284-0.01,0.426,0.248,0.426h11.879c0.258,0,0.346,0.129,0.262,0.387l-1.383,4.256
					c-0.084,0.259-0.255,0.387-0.513,0.387h-11.879c-0.259,0-0.433,0.143-0.525,0.427l-3.444,10.602
					c-0.084,0.259-0.256,0.388-0.514,0.388h-4.837c-0.258,0-0.345-0.129-0.261-0.388L427.453,141.381z"/>
				<path fill="#428BCA" d="M466.287,136.195h4.836c0.258,0,0.345,0.131,0.262,0.389l-5.972,18.38
					c-0.302,0.929-0.62,1.747-0.954,2.458c-0.334,0.709-0.662,1.283-0.985,1.721c-0.288,0.413-0.655,0.846-1.098,1.297
					c-0.443,0.451-0.909,0.871-1.395,1.258c-0.514,0.387-1.071,0.715-1.675,0.986c-0.605,0.271-1.168,0.497-1.691,0.678
					c-0.514,0.154-1.074,0.29-1.68,0.406s-1.243,0.174-1.914,0.174h-4.527c-0.852,0-1.615-0.09-2.292-0.271
					c-0.677-0.18-1.219-0.438-1.625-0.773c-0.433-0.336-0.78-0.697-1.041-1.083c-0.331-0.49-0.581-0.993-0.748-1.509
					c-0.151-0.568-0.22-1.168-0.208-1.801c0.011-0.631,0.134-1.309,0.369-2.031l6.462-19.889c0.083-0.258,0.255-0.389,0.513-0.389
					h4.838c0.256,0,0.344,0.131,0.261,0.389l-6.136,18.883c-0.1,0.31-0.158,0.664-0.172,1.064c-0.014,0.399,0.039,0.773,0.158,1.122
					s0.313,0.645,0.582,0.89c0.268,0.246,0.635,0.368,1.1,0.368h4.063c0.438,0,0.879-0.122,1.319-0.368
					c0.44-0.245,0.84-0.541,1.198-0.89s0.673-0.723,0.945-1.122c0.271-0.4,0.462-0.768,0.57-1.104l6.123-18.844
					C465.856,136.326,466.027,136.195,466.287,136.195z"/>
				<path fill="#428BCA" d="M477.559,163.554c-0.084,0.259-0.256,0.388-0.514,0.388h-4.837c-0.258,0-0.345-0.129-0.261-0.388
					l7.128-21.94c0.084-0.257-0.003-0.387-0.261-0.387h-6.308c-0.258,0-0.345-0.129-0.261-0.387l1.383-4.256
					c0.083-0.258,0.254-0.389,0.512-0.389h19c0.258,0,0.345,0.131,0.262,0.389l-1.383,4.256c-0.084,0.258-0.256,0.387-0.513,0.387
					h-6.308c-0.258,0-0.429,0.13-0.513,0.387L477.559,163.554z"/>
				<path fill="#428BCA" d="M511.521,136.195h4.836c0.258,0,0.345,0.131,0.262,0.389l-5.972,18.38
					c-0.302,0.929-0.62,1.747-0.954,2.458c-0.334,0.709-0.662,1.283-0.985,1.721c-0.288,0.413-0.655,0.846-1.098,1.297
					c-0.443,0.451-0.909,0.871-1.395,1.258c-0.514,0.387-1.071,0.715-1.675,0.986c-0.605,0.271-1.168,0.497-1.691,0.678
					c-0.514,0.154-1.074,0.29-1.68,0.406s-1.243,0.174-1.914,0.174h-4.527c-0.852,0-1.615-0.09-2.292-0.271
					c-0.677-0.18-1.219-0.438-1.625-0.773c-0.433-0.336-0.78-0.697-1.041-1.083c-0.331-0.49-0.581-0.993-0.748-1.509
					c-0.151-0.568-0.22-1.168-0.208-1.801c0.011-0.631,0.134-1.309,0.369-2.031l6.462-19.889c0.083-0.258,0.255-0.389,0.513-0.389
					h4.838c0.256,0,0.344,0.131,0.261,0.389l-6.136,18.883c-0.1,0.31-0.158,0.664-0.172,1.064c-0.014,0.399,0.039,0.773,0.158,1.122
					s0.313,0.645,0.582,0.89c0.268,0.246,0.635,0.368,1.1,0.368h4.063c0.438,0,0.879-0.122,1.319-0.368
					c0.44-0.245,0.84-0.541,1.198-0.89s0.673-0.723,0.945-1.122c0.271-0.4,0.462-0.768,0.57-1.104l6.123-18.844
					C511.091,136.326,511.262,136.195,511.521,136.195z"/>
				<path fill="#428BCA" d="M520.227,136.195h14.395c0.723,0,1.386,0.143,1.991,0.427c0.604,0.284,1.127,0.774,1.573,1.47
					c0.766,1.214,0.79,3.045,0.072,5.495l-0.289,0.89c-0.738,2.271-1.546,3.922-2.423,4.953c-0.529,0.517-1.056,0.988-1.581,1.413
					s-1.183,0.819-1.97,1.181c-0.034,0.025-0.079,0.064-0.134,0.115c-0.057,0.053-0.097,0.117-0.122,0.193
					c-0.017,0.053-0.021,0.104-0.011,0.156c0.341,0.773,0.54,1.45,0.598,2.031c0.056,0.58,0.086,1.18,0.092,1.799l0.004,6.539
					c-0.016,0.207,0.021,0.394,0.108,0.563c0.087,0.168,0.123,0.276,0.106,0.328c-0.043,0.129-0.142,0.193-0.296,0.193h-5.34
					c-0.155,0-0.279-0.136-0.371-0.406c-0.094-0.271-0.136-0.496-0.128-0.678l-0.199-6.771c0.107-1.444-0.368-2.244-1.426-2.399
					h-4.722c-0.258,0-0.429,0.13-0.513,0.388l-3.08,9.479c-0.084,0.259-0.255,0.388-0.513,0.388h-4.837
					c-0.259,0-0.345-0.129-0.261-0.388l8.763-26.97C519.798,136.326,519.969,136.195,520.227,136.195z M524.203,141.227
					c-0.258,0-0.429,0.13-0.513,0.387l-2.049,6.308c-0.084,0.259,0.016,0.388,0.3,0.388h7.004c0.361,0,0.819-0.181,1.375-0.542
					c0.462-0.31,0.886-0.761,1.272-1.354c0.386-0.594,0.697-1.25,0.932-1.973c0.118-0.361,0.205-0.691,0.263-0.988
					c0.057-0.296,0.063-0.572,0.019-0.831c-0.136-0.852-0.476-1.315-1.018-1.394H524.203z"/>
				<path fill="#428BCA" d="M542.488,142.117c0.57-1.755,1.51-3.18,2.82-4.276s2.869-1.646,4.676-1.646h13.117
					c0.336,0,0.461,0.131,0.378,0.389l-1.384,4.256c-0.083,0.258-0.255,0.387-0.513,0.387h-12.808c-0.259,0-0.434,0.143-0.525,0.426
					l-1.709,5.263c-0.084,0.259,0.002,0.388,0.261,0.388h11.879c0.258,0,0.346,0.129,0.262,0.386l-1.446,4.45
					c-0.084,0.259-0.255,0.387-0.513,0.387h-11.879c-0.259,0-0.429,0.131-0.513,0.388l-1.822,5.61
					c-0.084,0.258,0.002,0.388,0.26,0.388h12.809c0.258,0,0.346,0.129,0.262,0.386l-1.383,4.257
					c-0.084,0.259-0.256,0.388-0.514,0.388h-14.975c-0.465,0-0.889-0.121-1.273-0.368c-0.385-0.244-0.695-0.561-0.931-0.948
					c-0.235-0.387-0.386-0.818-0.449-1.295c-0.064-0.479-0.017-0.962,0.143-1.452L542.488,142.117z"/>
			</g>
		</g>
		<g>
			<polygon fill="#428BCA" points="175.651,138.084 217.321,138.084 211.84,154.95 172.91,146.518 			"/>
			<path fill="#428BCA" d="M211.842,156.936c-0.14,0-0.281-0.016-0.422-0.045l-38.93-8.435c-0.549-0.118-1.021-0.463-1.3-0.95
				c-0.28-0.486-0.34-1.068-0.167-1.604l2.741-8.434c0.266-0.816,1.028-1.369,1.887-1.369h41.67c0.635,0,1.231,0.303,1.605,0.816
				c0.373,0.516,0.478,1.176,0.281,1.779l-5.481,16.867C213.457,156.396,212.685,156.936,211.842,156.936z M175.476,145.042
				l35.032,7.589l4.083-12.563h-37.497L175.476,145.042z"/>
		</g>
		<g>
			<polygon fill="#428BCA" points="612.692,138.084 571.021,138.084 565.543,154.95 609.953,146.518 			"/>
			<path fill="#428BCA" d="M565.543,156.936c-0.564,0-1.109-0.24-1.489-0.674c-0.464-0.525-0.614-1.258-0.398-1.925l5.479-16.867
				c0.267-0.817,1.028-1.37,1.889-1.37h41.67c0.637,0,1.231,0.305,1.604,0.817c0.374,0.515,0.479,1.176,0.282,1.778l-2.74,8.436
				c-0.224,0.688-0.805,1.201-1.518,1.335l-44.409,8.435C565.789,156.923,565.665,156.936,565.543,156.936z M572.464,140.066
				l-3.998,12.31l39.963-7.59l1.532-4.72H572.464z"/>
		</g>
	</g>
	<g>
		<path fill="#418AC9" d="M171.889,11.888c-0.677-0.643-1.49-0.966-2.439-0.965c-17.677-0.001-32.274,2.404-43.789,7.213
			c-11.512,4.811-23.637,13.549-36.371,26.213C83.87,49.836,77.91,56.44,71.409,64.16l-22.882,1.208
			c-0.519,0.065-9.54,1.276-15.938,5.56c-6.958,4.658-11.331,12.438-11.683,12.931L7.505,106.835
			c-0.813,1.353-0.644,2.674,0.508,3.962l6.502,6.502c0.608,0.61,1.389,0.913,2.336,0.913c0.407,0.002,0.71-0.032,0.916-0.103
			l28.042-8.637l28.548,28.553l-8.637,28.039c-0.336,1.22-0.066,2.304,0.814,3.252l6.502,6.504c0.746,0.605,1.524,0.912,2.337,0.91
			c0.61,0,1.152-0.135,1.626-0.406l21.475-12.526c0.498-0.354,9.438-5.19,14.532-13.183c4.62-7.249,5.457-17.713,5.521-18.227
			l1.145-19.97c7.722-6.504,14.328-12.462,19.813-17.884c12.06-12.124,20.643-24.332,25.756-36.623
			c5.114-12.295,7.67-26.875,7.67-43.74C172.908,13.293,172.57,12.533,171.889,11.888z M146.547,54.791
			c-2.4,2.401-5.319,3.603-8.752,3.604c-3.433-0.001-6.348-1.202-8.752-3.604c-2.4-2.403-3.604-5.321-3.604-8.753
			c0.001-3.432,1.203-6.35,3.604-8.753c2.402-2.401,5.321-3.603,8.751-3.603c3.434,0,6.351,1.201,8.753,3.604
			c2.401,2.402,3.603,5.32,3.603,8.75C150.15,49.471,148.952,52.385,146.547,54.791z"/>
		<g>
			<polygon fill="#428BCA" points="35.775,135.973 48.261,148.46 73.1,130.794 53.441,111.135 			"/>
			<path fill="#428BCA" d="M48.262,150.445c-0.511,0-1.02-0.197-1.403-0.581l-12.486-12.487c-0.685-0.686-0.776-1.766-0.214-2.554
				l17.666-24.839c0.339-0.477,0.87-0.778,1.451-0.827c0.584-0.05,1.156,0.161,1.569,0.573l19.659,19.66
				c0.413,0.411,0.623,0.985,0.574,1.567c-0.049,0.583-0.352,1.114-0.827,1.452l-24.839,17.667
				C49.065,150.323,48.663,150.445,48.262,150.445z M38.365,135.756l10.114,10.115l21.559-15.334l-16.339-16.34L38.365,135.756z"/>
		</g>
	</g>
</g>
</svg>
